{"title":"Alyce 2012 DvDRiP XviD - VISUALiSE","uid":6797764,"size":678252289,"categoryP":"video","categoryS":"movies","magnet":"?xt=urn:btih:4e3e6d96daecb0971226de333c2d26adce3b83b0&amp;dn=Alyce+2012+DvDRiP+XviD+-+VISUALiSE&amp;tr=udp%3A%2F%2Ftracker.openbittorrent.com%3A80&amp;tr=udp%3A%2F%2Fopen.demonii.com%3A1337&amp;tr=udp%3A%2F%2Ftracker.coppersurfer.tk%3A6969&amp;tr=udp%3A%2F%2Fexodus.desync.com%3A6969","seeders":0,"leechers":0,"uploader":"sceneline","files":4,"time":1320522803,"description":"- &lt;a href=&quot;\nhttp://www.Speed.Cd&quot; rel=&quot;nofollow&quot; target=&quot;_NEW&quot;&gt;\nhttp://www.Speed.Cd&lt;/a&gt;      fast  and The Hottest Private Tracker on the net\n\n   signup is open now\n\nPlease Seed back to make the speed Faster!!!\n\n------------------nfo--------------------------\n-[pre]\noooooo     oooo  o8o   .oooooo..o ooooo     ooo       .o.       ooooo         o8o   .oooooo..o oooooooooooo\n`888.     .8'   `&quot;'  d8P'    `Y8 `888'     `8'      .888.      `888'         `&quot;'  d8P'    `Y8 `888'     `8\n `888.   .8'   oooo  Y88bo.       888       8      .8&quot;888.      888         oooo  Y88bo.       888        \n  `888. .8'    `888   `&quot;Y8888o.   888       8     .8' `888.     888         `888   `&quot;Y8888o.   888oooo8    \n   `888.8'      888       `&quot;Y88b  888       8    .88ooo8888.    888          888       `&quot;Y88b  888    &quot;    \n    `888'       888  oo     .d8P  `88.    .8'   .8'     `888.   888       o  888  oo     .d8P  888       o\n     `8'       o888o 8&quot;&quot;88888P'     `YbodP'    o88o     o8888o o888ooooood8 o888o 8&quot;&quot;88888P'  o888ooooood8\n\n\n\n\nTitle: Alyce 2012 DvDRiP XviD - VISUALiSE\nFormat: Xvid\nLanguage: English\nSubtitles: No\nImdb: http://www.imdb.com/title/tt1680051/\n\nPlot:\n\n\nSources:\nVideo: Retail DVDR - Many Thanks :D\nAudio: Retail DVDR - Many Thanks :D\n\nRelease Notes:\nAlyce 2012 DvDRiP XviD - VISUALiSE\nStraight forward rip from the dvdr ran \na few filters etc etc  \n\nenjoy. :P\n\nInfo:\nVideo\n\nID                               : 0\nFormat                           : MPEG-4 Visual\nFormat profile                   : Advanced Simple@L5\nFormat settings, BVOP            : 2\nFormat settings, QPel            : No\nFormat settings, GMC             : No warppoints\nFormat settings, Matrix          : Default (MPEG)\nCodec ID                         : XVID\nCodec ID/Hint                    : XviD\nDuration                         : 1h 29mn\nBit rate                         : 864 Kbps\nWidth                            : 714 pixels\nHeight                           : 400 pixels\nDisplay aspect ratio             : 16:9\nFrame rate                       : 29.970 fps\nColor space                      : YUV\nChroma subsampling               : 4:2:0\nBit depth                        : 8 bits\nScan type                        : Progressive\nCompression mode                 : Lossy\nBits/(Pixel*Frame)               : 0.101\nStream size                      : 556 MiB (86%)\n\nAudio\nID                               : 1\nFormat                           : MPEG Audio\nFormat version                   : Version 1\nFormat profile                   : Layer 3\nCodec ID                         : 55\nCodec ID/Hint                    : MP3\nDuration                         : 1h 29mn\nBit rate mode                    : Constant\nBit rate                         : 128 Kbps\nChannel(s)                       : 2 channels\nSampling rate                    : 48.0 KHz\nCompression mode                 : Lossy\nDelay relative to video          : 33ms\nStream size                      : 82.3 MiB (13%)\nAlignment                        : Aligned on interleaves\nInterleave, duration             : 24 ms (0.72 video frame)\nInterleave, preload duration     : 504 ms\n\nScreens:\n[IMG]http://i.imgur.com/STM08.png[/IMG]\n\n[IMG]http://i.imgur.com/2oOpN.png[/IMG]\n\n[IMG]http://i.imgur.com/GAA2W.png[/IMG]\n\n[IMG]http://i.imgur.com/BPT9q.png[/IMG]\n\n[IMG]http://i.imgur.com/IAKTU.png[/IMG]\n\nGreetz\nThe Select Few .... YOU Know Who YOU Are ;)\nThe Rest Of You ................... SUCK :P\n","torrent":{"xt":"urn:btih:4e3e6d96daecb0971226de333c2d26adce3b83b0","amp;dn":"Alyce+2012+DvDRiP+XviD+-+VISUALiSE","amp;tr":["udp%3A%2F%2Ftracker.openbittorrent.com%3A80","udp%3A%2F%2Fopen.demonii.com%3A1337","udp%3A%2F%2Ftracker.coppersurfer.tk%3A6969","udp%3A%2F%2Fexodus.desync.com%3A6969"],"infoHash":"4e3e6d96daecb0971226de333c2d26adce3b83b0","infoHashBuffer":{"type":"Buffer","data":[78,62,109,150,218,236,176,151,18,38,222,51,60,45,38,173,206,59,131,176]},"announce":[],"urlList":[]}}